<mxfile host="app.diagrams.net" modified="2023-09-11T17:00:40.789Z" agent="Mozilla/5.0 (Windows NT 10.0; Win64; x64) AppleWebKit/537.36 (KHTML, like Gecko) Chrome/116.0.0.0 Safari/537.36" etag="mEv-pq43IPMIFatiXzml" version="21.7.4" type="device">
  <diagram name="1 oldal" id="pL-K80xvJewHXVkx9QC4">
    <mxGraphModel dx="584" dy="678" grid="1" gridSize="10" guides="1" tooltips="1" connect="1" arrows="1" fold="1" page="1" pageScale="1" pageWidth="827" pageHeight="1169" math="0" shadow="0">
      <root>
        <mxCell id="0" />
        <mxCell id="1" parent="0" />
        <mxCell id="x3SwiINWwGX-mMM16VKN-3" style="edgeStyle=orthogonalEdgeStyle;rounded=0;orthogonalLoop=1;jettySize=auto;html=1;exitX=0.5;exitY=1;exitDx=0;exitDy=0;entryX=0.5;entryY=0;entryDx=0;entryDy=0;" edge="1" parent="1" source="x3SwiINWwGX-mMM16VKN-1" target="x3SwiINWwGX-mMM16VKN-2">
          <mxGeometry relative="1" as="geometry" />
        </mxCell>
        <mxCell id="x3SwiINWwGX-mMM16VKN-1" value="start" style="ellipse;whiteSpace=wrap;html=1;" vertex="1" parent="1">
          <mxGeometry x="294" y="20" width="120" height="80" as="geometry" />
        </mxCell>
        <mxCell id="x3SwiINWwGX-mMM16VKN-5" style="edgeStyle=orthogonalEdgeStyle;rounded=0;orthogonalLoop=1;jettySize=auto;html=1;exitX=0.5;exitY=1;exitDx=0;exitDy=0;entryX=0.5;entryY=0;entryDx=0;entryDy=0;" edge="1" parent="1" source="x3SwiINWwGX-mMM16VKN-2" target="x3SwiINWwGX-mMM16VKN-4">
          <mxGeometry relative="1" as="geometry" />
        </mxCell>
        <mxCell id="x3SwiINWwGX-mMM16VKN-2" value="i = 1" style="rounded=0;whiteSpace=wrap;html=1;" vertex="1" parent="1">
          <mxGeometry x="294" y="160" width="120" height="60" as="geometry" />
        </mxCell>
        <mxCell id="x3SwiINWwGX-mMM16VKN-7" style="edgeStyle=orthogonalEdgeStyle;rounded=0;orthogonalLoop=1;jettySize=auto;html=1;exitX=0.5;exitY=1;exitDx=0;exitDy=0;entryX=0.5;entryY=0;entryDx=0;entryDy=0;" edge="1" parent="1" source="x3SwiINWwGX-mMM16VKN-4" target="x3SwiINWwGX-mMM16VKN-6">
          <mxGeometry relative="1" as="geometry" />
        </mxCell>
        <mxCell id="x3SwiINWwGX-mMM16VKN-4" value="be: a" style="shape=parallelogram;perimeter=parallelogramPerimeter;whiteSpace=wrap;html=1;fixedSize=1;" vertex="1" parent="1">
          <mxGeometry x="290" y="300" width="120" height="60" as="geometry" />
        </mxCell>
        <mxCell id="x3SwiINWwGX-mMM16VKN-10" style="edgeStyle=orthogonalEdgeStyle;rounded=0;orthogonalLoop=1;jettySize=auto;html=1;exitX=1;exitY=0.5;exitDx=0;exitDy=0;entryX=0;entryY=0.5;entryDx=0;entryDy=0;" edge="1" parent="1" source="x3SwiINWwGX-mMM16VKN-6" target="x3SwiINWwGX-mMM16VKN-9">
          <mxGeometry relative="1" as="geometry" />
        </mxCell>
        <mxCell id="x3SwiINWwGX-mMM16VKN-17" style="edgeStyle=orthogonalEdgeStyle;rounded=0;orthogonalLoop=1;jettySize=auto;html=1;entryX=0.5;entryY=0;entryDx=0;entryDy=0;" edge="1" parent="1" source="x3SwiINWwGX-mMM16VKN-6" target="x3SwiINWwGX-mMM16VKN-16">
          <mxGeometry relative="1" as="geometry" />
        </mxCell>
        <mxCell id="x3SwiINWwGX-mMM16VKN-6" value="i &amp;lt; (a+1)" style="rhombus;whiteSpace=wrap;html=1;" vertex="1" parent="1">
          <mxGeometry x="264" y="490" width="180" height="150" as="geometry" />
        </mxCell>
        <mxCell id="x3SwiINWwGX-mMM16VKN-8" value="I" style="text;html=1;strokeColor=none;fillColor=none;align=center;verticalAlign=middle;whiteSpace=wrap;rounded=0;" vertex="1" parent="1">
          <mxGeometry x="400" y="500" width="60" height="30" as="geometry" />
        </mxCell>
        <mxCell id="x3SwiINWwGX-mMM16VKN-12" style="edgeStyle=orthogonalEdgeStyle;rounded=0;orthogonalLoop=1;jettySize=auto;html=1;exitX=1;exitY=0;exitDx=0;exitDy=0;entryX=0.5;entryY=1;entryDx=0;entryDy=0;" edge="1" parent="1" source="x3SwiINWwGX-mMM16VKN-9" target="x3SwiINWwGX-mMM16VKN-11">
          <mxGeometry relative="1" as="geometry" />
        </mxCell>
        <mxCell id="x3SwiINWwGX-mMM16VKN-9" value="Ki : (i*i)" style="rounded=0;whiteSpace=wrap;html=1;" vertex="1" parent="1">
          <mxGeometry x="520" y="535" width="120" height="60" as="geometry" />
        </mxCell>
        <mxCell id="x3SwiINWwGX-mMM16VKN-13" style="edgeStyle=orthogonalEdgeStyle;rounded=0;orthogonalLoop=1;jettySize=auto;html=1;" edge="1" parent="1" source="x3SwiINWwGX-mMM16VKN-11">
          <mxGeometry relative="1" as="geometry">
            <mxPoint x="360" y="430" as="targetPoint" />
            <Array as="points">
              <mxPoint x="505" y="430" />
              <mxPoint x="505" y="431" />
              <mxPoint x="360" y="431" />
            </Array>
          </mxGeometry>
        </mxCell>
        <mxCell id="x3SwiINWwGX-mMM16VKN-11" value="i +=1" style="rounded=0;whiteSpace=wrap;html=1;" vertex="1" parent="1">
          <mxGeometry x="650" y="400" width="120" height="60" as="geometry" />
        </mxCell>
        <mxCell id="x3SwiINWwGX-mMM16VKN-14" value="Text" style="text;html=1;strokeColor=none;fillColor=none;align=center;verticalAlign=middle;whiteSpace=wrap;rounded=0;" vertex="1" parent="1">
          <mxGeometry x="480" y="540" width="60" height="30" as="geometry" />
        </mxCell>
        <mxCell id="x3SwiINWwGX-mMM16VKN-15" value="H" style="text;html=1;strokeColor=none;fillColor=none;align=center;verticalAlign=middle;whiteSpace=wrap;rounded=0;" vertex="1" parent="1">
          <mxGeometry x="350" y="620" width="60" height="30" as="geometry" />
        </mxCell>
        <mxCell id="x3SwiINWwGX-mMM16VKN-16" value="Okosba END" style="ellipse;whiteSpace=wrap;html=1;" vertex="1" parent="1">
          <mxGeometry x="290" y="720" width="120" height="80" as="geometry" />
        </mxCell>
      </root>
    </mxGraphModel>
  </diagram>
</mxfile>
